<?xml version="1.0" standalone="no"?><!DOCTYPE svg PUBLIC "-//W3C//DTD SVG 1.1//EN" "http://www.w3.org/Graphics/SVG/1.1/DTD/svg11.dtd"><svg t="1605796697821" class="icon" viewBox="0 0 1024 1024" version="1.1" xmlns="http://www.w3.org/2000/svg" p-id="22892" xmlns:xlink="http://www.w3.org/1999/xlink" width="200" height="200"><defs><style type="text/css"></style></defs><path d="M147 483.5l649.7-77.3L609 275.5z" fill="#FFBB00" p-id="22893"></path><path d="M147 748.5v-265l649.7-77.3v265z" fill="#FECD44" p-id="22894"></path><path d="M417.2 634.6m-44.2 0a44.2 44.2 0 1 0 88.4 0 44.2 44.2 0 1 0-88.4 0Z" fill="#F5B400" p-id="22895"></path><path d="M425.8 670.2c-24.4 0-44.2-19.8-44.2-44.2 0-10 3.3-19.3 9-26.7-10.6 8.1-17.5 20.8-17.5 35.2 0 24.4 19.8 44.2 44.2 44.2 14.4 0 27.2-6.9 35.2-17.5-7.5 5.7-16.7 9-26.7 9z" fill="#F29D00" p-id="22896"></path><path d="M222.4 588.1m-27.7 0a27.7 27.7 0 1 0 55.4 0 27.7 27.7 0 1 0-55.4 0Z" fill="#F5B400" p-id="22897"></path><path d="M228.6 609.6c-15.3 0-27.7-12.4-27.7-27.7 0-6.1 2-11.7 5.3-16.2-7 5-11.5 13.2-11.5 22.4 0 15.3 12.4 27.7 27.7 27.7 9.2 0 17.4-4.5 22.4-11.5-4.5 3.4-10.1 5.3-16.2 5.3z" fill="#F29D00" p-id="22898"></path><path d="M514.2 511.3m-13.9 0a13.9 13.9 0 1 0 27.8 0 13.9 13.9 0 1 0-27.8 0Z" fill="#F5B400" p-id="22899"></path><path d="M517.3 522.1c-7.7 0-13.9-6.2-13.9-13.9 0-3.1 1-5.9 2.7-8.1-3.5 2.5-5.7 6.6-5.7 11.2 0 7.7 6.2 13.9 13.9 13.9 4.6 0 8.7-2.3 11.2-5.7-2.4 1.7-5.2 2.6-8.2 2.6z" fill="#F29D00" p-id="22900"></path><path d="M601.9 605m-29.6 0a29.6 29.6 0 1 0 59.2 0 29.6 29.6 0 1 0-59.2 0Z" fill="#F5B400" p-id="22901"></path><path d="M608.1 628.3c-16.3 0-29.6-13.2-29.6-29.6 0-6.6 2.2-12.6 5.8-17.6-7.3 5.4-12 14-12 23.8 0 16.3 13.2 29.6 29.6 29.6 9.8 0 18.4-4.7 23.8-12-5 3.7-11 5.8-17.6 5.8z" fill="#F29D00" p-id="22902"></path><path d="M692 504.2m-38.2 0a38.2 38.2 0 1 0 76.4 0 38.2 38.2 0 1 0-76.4 0Z" fill="#F5B400" p-id="22903"></path><path d="M699.1 535.3c-21.1 0-38.2-17.1-38.2-38.2 0-8.7 3-16.8 7.9-23.2-9.1 7-15 17.9-15 30.3 0 21.1 17.1 38.2 38.2 38.2 12.4 0 23.3-5.9 30.3-15-6.5 4.9-14.5 7.9-23.2 7.9z" fill="#F29D00" p-id="22904"></path><path d="M730.2 626.1m-21.2 0a21.2 21.2 0 1 0 42.4 0 21.2 21.2 0 1 0-42.4 0Z" fill="#F5B400" p-id="22905"></path><path d="M735.2 642.3c-11.7 0-21.2-9.5-21.2-21.2 0-4.6 1.5-8.8 3.9-12.2-5.4 3.8-8.9 10.1-8.9 17.3 0 11.7 9.5 21.2 21.2 21.2 7.1 0 13.4-3.5 17.3-8.9-3.5 2.3-7.7 3.8-12.3 3.8z" fill="#F29D00" p-id="22906"></path><path d="M469.9 372.6a32.5 26 0 1 0 65 0 32.5 26 0 1 0-65 0Z" fill="#FFA600" p-id="22907"></path><path d="M511.2 396.4c-18 0-32.5-11.7-32.5-26 0-10.4 7.6-19.3 18.5-23.5-15.5 2-27.3 12.7-27.3 25.7 0 14.4 14.6 26 32.5 26 5 0 9.8-0.9 14-2.6-1.7 0.3-3.4 0.4-5.2 0.4z" fill="#FF8000" p-id="22908"></path><path d="M607.5 374.3a17.5 13.4 0 1 0 35 0 17.5 13.4 0 1 0-35 0Z" fill="#FFA600" p-id="22909"></path><path d="M614 374.3c0-6.5 6.1-12 14.2-13.1-1-0.1-2.1-0.2-3.2-0.2-9.6 0-17.5 6-17.5 13.4s7.8 13.4 17.5 13.4c1.1 0 2.2-0.1 3.2-0.2-8.1-1.3-14.2-6.8-14.2-13.3z" fill="#FF8000" p-id="22910"></path><path d="M354.1 414.4a13.7 8.9 0 1 0 27.4 0 13.7 8.9 0 1 0-27.4 0Z" fill="#FFA600" p-id="22911"></path><path d="M359.3 414.4c0-4.3 4.8-7.9 11.1-8.7-0.8-0.1-1.7-0.2-2.6-0.2-7.6 0-13.7 4-13.7 8.9s6.1 8.9 13.7 8.9c0.9 0 1.8-0.1 2.6-0.2-6.3-0.8-11.1-4.4-11.1-8.7z" fill="#FF8000" p-id="22912"></path><path d="M739.9 659.8m-50 0a50 50 0 1 0 100 0 50 50 0 1 0-100 0Z" fill="#FC355D" p-id="22913"></path><path d="M827 659.8m-50 0a50 50 0 1 0 100 0 50 50 0 1 0-100 0Z" fill="#FC355D" p-id="22914"></path><path d="M799 657.1c-0.2-1.9 4.7-5.8 9.6-6.5s1.3-10 1.6-13.8c0.2-2.8 2.7-3.8 5.1 0.5 6.8 12.3-10.5 28.5-16.3 19.8z" fill="#EB2D53" p-id="22915"></path><path d="M802.8 659.4c2.6-0.8 5.1-1.9 7.2-3.3 2.1-1.4 3.9-3.3 4.8-5.6 1-2.3 1.1-4.9 0.7-7.5-0.3-2.6-1.1-5.2-2-7.8 1.6 2.2 2.8 4.7 3.5 7.5 0.4 1.4 0.5 2.8 0.5 4.2-0.1 1.4-0.4 2.9-0.9 4.3-0.6 1.4-1.4 2.6-2.4 3.7-1 1-2.2 1.9-3.5 2.5-2.3 1.3-5.1 2-7.9 2zM728.6 620.1c0.9 0.6 1.9 0.7 2.9 0.8 1 0.1 2 0.1 3 0.1 2 0 4-0.3 6.1-0.6 2-0.3 4.1-0.5 6.1-0.8 2-0.3 4.1-0.6 6.2-0.7-1.9 0.9-3.9 1.7-5.9 2.2-2 0.6-4.1 1-6.2 1.3-2.1 0.2-4.2 0.4-6.4 0.1-0.5-0.1-1.1-0.2-1.6-0.2-0.5-0.1-1.1-0.3-1.6-0.4-1-0.3-2-0.8-2.6-1.8z" fill="#D3355B" p-id="22916"></path><path d="M728.014691 619.7828a1.8 12.4 87.306 1 0 24.772592-1.165646 1.8 12.4 87.306 1 0-24.772592 1.165646Z" fill="#EB2D53" p-id="22917"></path><path d="M758.4 522.2s14.5 47.7 97.9 64c0 0 20.1-60.2-97.9-64z" fill="#00F0D4" p-id="22918"></path></svg>