<?xml version="1.0" standalone="no"?><!DOCTYPE svg PUBLIC "-//W3C//DTD SVG 1.1//EN" "http://www.w3.org/Graphics/SVG/1.1/DTD/svg11.dtd"><svg t="1605796875077" class="icon" viewBox="0 0 1024 1024" version="1.1" xmlns="http://www.w3.org/2000/svg" p-id="28288" xmlns:xlink="http://www.w3.org/1999/xlink" width="200" height="200"><defs><style type="text/css"></style></defs><path d="M471.784376 779.612745a215.691732 215.691732 0 1 1-431.399575 0c0-119.148454 96.543277-181.969255 215.691731-181.969255s215.691732 62.836913 215.691732 181.969255" fill="#E34361" p-id="28289"></path><path d="M376.352828 622.891039c28.308835 29.694469 45.323137 69.603965 45.323138 119.502919 0 119.374023-96.430493 216.142868-215.353379 216.142868a213.645504 213.645504 0 0 1-100.684069-25.134765 214.177201 214.177201 0 0 0 150.792479 61.950752c118.938998 0 215.353379-96.784958 215.353379-216.142869 0-74.824262-37.895492-127.430037-95.431548-156.286681" fill="#BC395B" p-id="28290"></path><path d="M256.22154 626.032885c-86.763276 0-188.075714 40.457305-188.075714 154.514358 0 103.793691 84.362584 188.28517 188.075714 188.28517s188.075714-84.49148 188.075714-188.28517c0-114.057053-101.312438-154.514358-188.075714-154.514358m0 397.967115C122.121123 1024 13.042687 914.792668 13.042687 780.547243c0-125.416033 97.735568-209.681945 243.178853-209.681945s243.178853 84.265911 243.178853 209.681945c0 134.245425-109.078436 243.436645-243.178853 243.436645" fill="#454849" p-id="28291"></path><path d="M257.220486 755.460813c-58.228873 0-83.959783-30.065046-86.698828-33.51302a27.164881 27.164881 0 0 1 4.543593-38.443301 27.857698 27.857698 0 0 1 38.862213 4.479144s12.39015 12.696279 43.293022 12.696279 43.373582-12.889623 43.905279-13.42132a28.341059 28.341059 0 0 1 38.66887-2.739045 26.697632 26.697632 0 0 1 4.124679 37.396019c-2.739045 3.447974-28.469955 33.51302-86.698828 33.51302" fill="#454849" p-id="28292"></path><path d="M208.739391 803.861348c-58.228873 0-89.373425-41.37569-90.726835-43.180237A20.349493 20.349493 0 0 1 122.604484 732.017811a21.058422 21.058422 0 0 1 29.001652 4.414696 74.115333 74.115333 0 0 0 60.645677 26.278719c11.520101-1.224514 21.20343 8.297695 21.702903 19.624452a20.623397 20.623397 0 0 1-19.898355 21.380662c-1.804547 0.08056-3.57687 0.128896-5.333082 0.128896" fill="#FEFEFE" p-id="28293"></path><path d="M983.147951 779.612745a215.691732 215.691732 0 1 1-431.399576 0c0-119.148454 96.543277-181.969255 215.691732-181.969255s215.691732 62.836913 215.691732 181.969255" fill="#E34361" p-id="28294"></path><path d="M887.716403 622.891039C916.025238 652.537173 933.039541 692.495004 933.039541 742.393958c0 119.374023-96.430493 216.142868-215.353379 216.142868a213.645504 213.645504 0 0 1-100.684069-25.134765 214.177201 214.177201 0 0 0 150.792479 61.950752c118.938998 0 215.353379-96.784958 215.353379-216.142869 0-74.824262-37.895492-127.430037-95.431548-156.286681" fill="#BC395B" p-id="28295"></path><path d="M767.77846 626.032885c-86.763276 0-188.075714 40.457305-188.075714 154.514358 0 103.793691 84.362584 188.28517 188.075714 188.28517s188.075714-84.49148 188.075714-188.28517c0-114.057053-101.312438-154.514358-188.075714-154.514358m0 397.967115c-134.100417 0-243.178853-109.19122-243.178853-243.436645 0-125.416033 97.735568-209.681945 243.178853-209.681945s243.178853 84.265911 243.178853 209.681945c0 134.245425-109.078436 243.436645-243.178853 243.436645" fill="#454849" p-id="28296"></path><path d="M768.584061 755.460813c-58.228873 0-83.959783-30.065046-86.698828-33.51302a27.164881 27.164881 0 0 1 4.543592-38.443301 27.87381 27.87381 0 0 1 38.862214 4.479144s12.39015 12.696279 43.293022 12.696279 43.373582-12.889623 43.873055-13.42132a28.389395 28.389395 0 0 1 38.668869-2.739045 26.745968 26.745968 0 0 1 4.12468 37.396019c-2.739045 3.41575-28.469955 33.51302-86.698828 33.51302" fill="#454849" p-id="28297"></path><path d="M720.102966 803.861348c-58.261097 0-89.389537-41.37569-90.726835-43.180237a20.349493 20.349493 0 0 1 4.60804-28.6633 20.945638 20.945638 0 0 1 29.001652 4.414696A75.098167 75.098167 0 0 0 723.583164 762.711226c11.826229-1.224514 21.20343 8.297695 21.702903 19.624452a20.623397 20.623397 0 0 1-19.898356 21.380662c-1.804547 0.08056-3.57687 0.128896-5.333081 0.128896" fill="#FEFEFE" p-id="28298"></path><path d="M257.25271 744.939659a27.55157 27.55157 0 0 1-27.390449-27.648242c0.16112-78.304461 41.391802-127.736166 81.269074-175.508331 58.389993-69.990654 118.777877-142.414224 82.171348-325.607994a27.471009 27.471009 0 1 1 53.862512-10.907843c41.891275 209.230808-33.400236 299.45817-93.86868 371.978412-38.169397 45.725938-68.331115 81.897443-68.443899 140.174652a27.535457 27.535457 0 0 1-27.390449 27.55157" fill="#454849" p-id="28299"></path><path d="M768.229596 755.460813a27.583794 27.583794 0 0 1-26.810416-21.235654c-1.35341-5.735882-139.352938-573.282102-431.302903-526.992243A27.535457 27.535457 0 1 1 301.448006 152.854819c342.251719-53.943073 487.614444 543.281504 493.624231 568.754622a27.519345 27.519345 0 0 1-20.494501 33.094107 28.147715 28.147715 0 0 1-6.444812 0.741153" fill="#454849" p-id="28300"></path><path d="M795.861726 92.934183c-304.356227-186.899536-355.640815 85.264857-355.640815 85.264857s168.870175 219.41361 355.640815-85.264857" fill="#3BB777" p-id="28301"></path><path d="M795.861726 92.59583l-355.640815 85.393754s168.870175 219.977531 355.640815-85.393754" fill="#229857" p-id="28302"></path><path d="M470.78543 170.787507c18.222705 18.931634 64.448116 59.485611 121.645819 55.763732 55.795956-3.109622 111.044104-44.888113 164.487703-124.272079C673.329746 55.812068 605.159751 43.502478 553.955723 66.059319c-52.895791 23.201322-75.468744 79.625647-83.170293 104.728188m114.846542 111.173c-98.895634 0-164.246023-83.347526-167.049516-87.004957a27.583794 27.583794 0 0 1-5.236409-21.944583c0.886162-4.6886 22.685737-115.072111 117.92394-157.253403 73.631972-32.642971 167.403981-14.500826 278.7381 53.814177a27.616018 27.616018 0 0 1 9.103297 37.927716c-68.331115 111.318008-143.751522 169.949681-224.166659 174.203257-3.222406 0.193344-6.251467 0.273904-9.344977 0.273905" fill="#454849" p-id="28303"></path></svg>