<?xml version="1.0" standalone="no"?><!DOCTYPE svg PUBLIC "-//W3C//DTD SVG 1.1//EN" "http://www.w3.org/Graphics/SVG/1.1/DTD/svg11.dtd"><svg t="1607522887955" class="icon" viewBox="0 0 1024 1024" version="1.1" xmlns="http://www.w3.org/2000/svg" p-id="7253" xmlns:xlink="http://www.w3.org/1999/xlink" width="200" height="200"><defs><style type="text/css"></style></defs><path d="M355.11523463 896.52148455A51.85546883 51.85546883 0 0 1 303.2597658 844.66601571a10.98632796 10.98632796 0 0 0-1e-8-1.97753906L195.48388689 259.31445321h633.03222622L720.7402342 842.68847665a10.98632796 10.98632796 0 0 0 1e-8 1.97753906A51.85546883 51.85546883 0 0 1 668.88476537 896.52148455z" fill="#77EDB7" p-id="7254"></path><path d="M815.222656 270.30078117L709.75390625 840.71093758a21.9726559 21.9726559 0 0 0 0 3.95507813A40.86914089 40.86914089 0 0 1 668.88476537 885.5351566H355.11523463A40.86914089 40.86914089 0 0 1 314.24609375 844.66601571a21.9726559 21.9726559 0 0 0 0-3.95507813L208.777344 270.30078117h606.445312m26.367188-21.97265592H182.410156l109.86328185 596.33789046A62.84179679 62.84179679 0 0 0 355.11523463 907.5078125h313.76953074A62.84179679 62.84179679 0 0 0 731.72656215 844.66601571L841.589844 248.32812525z" fill="#333333" p-id="7255"></path><path d="M171.42382804 259.31445321a43.94531258 43.94531258 0 0 1 0-87.89062517h681.15234392a43.94531258 43.94531258 0 0 1 0 87.89062517z" fill="#FFFFFF" p-id="7256"></path><path d="M852.57617196 182.410156a32.95898463 32.95898463 0 0 1 0 65.91796925H171.42382804a32.95898463 32.95898463 0 0 1 0-65.91796925h681.15234392m0-21.97265591H171.42382804a54.93164054 54.93164054 0 0 0-54.93164054 54.93164054 54.93164054 54.93164054 0 0 0 54.93164054 54.93164054h681.15234392a54.93164054 54.93164054 0 0 0 54.93164054-54.93164054 54.93164054 54.93164054 0 0 0-54.93164054-54.93164054z" fill="#333333" p-id="7257"></path><path d="M259.31445321 171.42382804V149.45117213a21.9726559 21.9726559 0 0 1 21.97265591-21.97265668h461.42578176a21.9726559 21.9726559 0 0 1 21.97265591 21.97265668v21.97265591z" fill="#F79292" p-id="7258"></path><path d="M742.71289088 138.4648434a10.98632796 10.98632796 0 0 1 10.98632795 10.98632873v10.98632796H270.30078117V149.45117213a10.98632796 10.98632796 0 0 1 10.98632795-10.98632873h461.42578176m0-21.9726559H281.28710912a32.95898463 32.95898463 0 0 0-32.95898387 32.95898463v32.95898387h527.3437495V149.45117213a32.95898463 32.95898463 0 0 0-32.95898387-32.95898463z" fill="#333333" p-id="7259"></path><path d="M245.03222656 682.28808559a10.98632796 10.98632796 0 0 1-10.98632795-9.118652L195.37402378 440.58886753h633.25195244l-38.78173794 232.47070296a10.98632796 10.98632796 0 0 1-10.98632797 9.118652z" fill="#FFFFFF" p-id="7260"></path><path d="M815.66210921 451.57519549l-36.69433577 219.72656214H245.03222656l-36.69433577-219.72656214h607.3242184m12.96386703-21.97265668H195.37402378a10.98632796 10.98632796 0 0 0-10.98632872 12.7441408l38.89160183 232.58056683a21.9726559 21.9726559 0 0 0 21.97265589 18.34716787H778.96777344a21.9726559 21.9726559 0 0 0 21.9726559-18.34716787l38.78173871-232.47070372a10.98632796 10.98632796 0 0 0-10.98632795-12.74414003z" fill="#333333" p-id="7261"></path></svg>