<?xml version="1.0" standalone="no"?><!DOCTYPE svg PUBLIC "-//W3C//DTD SVG 1.1//EN" "http://www.w3.org/Graphics/SVG/1.1/DTD/svg11.dtd"><svg t="1605796500929" class="icon" viewBox="0 0 1024 1024" version="1.1" xmlns="http://www.w3.org/2000/svg" p-id="18529" xmlns:xlink="http://www.w3.org/1999/xlink" width="200" height="200"><defs><style type="text/css"></style></defs><path d="M689.2544 568.576c-24.2176 0-24.2176 18.8416-48.4864 18.8416s-24.2688-18.8416-48.5376-18.8416-24.2688 18.8416-48.4864 18.8416-24.2688-18.8416-48.5376-18.8416-24.2176 18.8416-48.4864 18.8416-24.32-19.2-48.5888-18.8416-25.856 13.312-46.336 18.7392l25.6 349.9008h332.8l25.6-350.3616c-19.968-2.9184-22.3744-18.2784-46.5408-18.2784z" fill="#B6E9FF" p-id="18530"></path><path d="M584.0384 895.1296H345.9072a15.36 15.36 0 0 1 0-30.72h238.1312a15.36 15.36 0 0 1 0 30.72zM691.9168 895.1296h-42.6496a15.36 15.36 0 1 1 0-30.72h42.6496a15.36 15.36 0 0 1 0 30.72z" fill="#8E5178" p-id="18531"></path><path d="M697.2416 999.168H326.7584a15.36 15.36 0 0 1-15.36-14.1312L268.4928 442.9824a15.36 15.36 0 0 1 3.9936-11.6224 15.36 15.36 0 0 1 11.3152-5.12h456.3968a15.36 15.36 0 0 1 15.36 16.5888l-42.9568 542.0544a15.36 15.36 0 0 1-15.36 14.2848z m-356.3008-30.72h342.1184l40.5504-511.3344H300.3904z" fill="#8E5178" p-id="18532"></path><path d="M744.3456 455.68H279.6544a33.1264 33.1264 0 0 1-33.1264-33.0752v-23.9616a33.1776 33.1776 0 0 1 21.9136-31.1296v-0.8192a205.5168 205.5168 0 0 1 205.5168-204.8h76.0832a205.5168 205.5168 0 0 1 205.5168 204.8v0.8192a33.1264 33.1264 0 0 1 21.9136 31.1296v23.808a33.1264 33.1264 0 0 1-33.1264 33.2288zM279.6544 396.288a2.4064 2.4064 0 0 0-2.4064 2.3552v23.808a2.3552 2.3552 0 0 0 2.4064 2.3552h464.6912a2.3552 2.3552 0 0 0 2.4064-2.3552v-23.808a2.4064 2.4064 0 0 0-2.4064-2.3552h-4.1472a15.36 15.36 0 0 1-15.36-15.36v-14.2336a174.7456 174.7456 0 0 0-174.7968-174.08H473.9584a174.7456 174.7456 0 0 0-174.7968 174.08v14.2336a15.36 15.36 0 0 1-15.36 15.36z" fill="#8E5178" p-id="18533"></path><path d="M674.5088 396.288H357.4784a15.36 15.36 0 0 1-15.36-15.36 87.3472 87.3472 0 0 1 87.3472-87.04h2.9696a87.04 87.04 0 0 1 165.5808 0 87.04 87.04 0 0 1 91.8528 87.04 15.36 15.36 0 0 1-15.36 15.36z m-299.52-30.72h282.0608a56.6784 56.6784 0 0 0-54.528-40.96 58.7776 58.7776 0 0 0-12.7488 1.4848 15.36 15.36 0 0 1-18.6368-12.7488 56.32 56.32 0 0 0-111.872-0.3584 15.36 15.36 0 0 1-6.4 10.24 15.36 15.36 0 0 1-11.8784 2.4576 53.9648 53.9648 0 0 0-11.52-1.1776 56.6272 56.6272 0 0 0-54.4768 41.0624z" fill="#8E5178" p-id="18534"></path><path d="M740.1984 396.288H403.0976a15.36 15.36 0 1 1 0-30.72h337.1008a15.36 15.36 0 0 1 0 30.72zM304.8448 396.288h-29.44a15.36 15.36 0 1 1 0-30.72h29.44a15.36 15.36 0 0 1 0 30.72zM619.9808 640a54.6304 54.6304 0 0 1-36.3008-13.3632 25.6 25.6 0 0 0-35.4304 0 55.9104 55.9104 0 0 1-72.5504 0 25.6 25.6 0 0 0-35.4816 0 55.9104 55.9104 0 0 1-72.5504 0 24.576 24.576 0 0 0-17.664-7.1168 15.36 15.36 0 1 1 0-30.72 54.6304 54.6304 0 0 1 36.2496 13.3632 25.6 25.6 0 0 0 35.4304 0 55.9104 55.9104 0 0 1 72.5504 0 25.6 25.6 0 0 0 35.4304 0 55.9616 55.9616 0 0 1 72.6016 0 25.6 25.6 0 0 0 35.4816 0 54.6304 54.6304 0 0 1 36.2496-13.3632 15.36 15.36 0 0 1 0 30.72 24.6272 24.6272 0 0 0-17.7152 7.1168 54.6304 54.6304 0 0 1-36.3008 13.3632zM515.9936 190.5664a15.36 15.36 0 0 1-10.24-3.7376c-1.9456-1.6896-47.36-41.2672-66.0992-68.6592a63.0272 63.0272 0 0 1-5.12-64.9216 53.1456 53.1456 0 0 1 47.9232-28.416 47.1552 47.1552 0 0 1 33.4848 12.7488 47.36 47.36 0 0 1 33.536-12.7488 53.1456 53.1456 0 0 1 47.9232 28.416 63.0272 63.0272 0 0 1-5.12 64.9216c-18.7392 27.392-64.1536 66.9696-66.0992 68.6592a15.36 15.36 0 0 1-10.1888 3.7376z m-33.4848-135.0144a22.1696 22.1696 0 0 0-20.48 12.032 32.4096 32.4096 0 0 0 3.4816 33.2288c11.6224 16.9984 36.7104 40.96 50.7904 53.76 14.08-12.8512 39.2192-36.8128 50.8416-53.76a32.4096 32.4096 0 0 0 3.4816-33.2288 22.2208 22.2208 0 0 0-20.7872-12.032 18.176 18.176 0 0 0-18.432 14.9504 15.36 15.36 0 0 1-30.1568 0 18.2272 18.2272 0 0 0-18.7392-14.9504z" fill="#8E5178" p-id="18535"></path></svg>